<svg width="26" height="14" viewBox="0 0 26 14" fill="none" xmlns="http://www.w3.org/2000/svg">
<g clip-path="url(#clip0_9_412)">
<path d="M21.15 8H5.85C5.374 8 5 7.56 5 7C5 6.44 5.374 6 5.85 6H21.15C21.626 6 22 6.44 22 7C22 7.56 21.626 8 21.15 8Z" fill="black"/>
<path d="M10.5 14.1111C10.3852 14.1125 10.2715 14.0895 10.166 14.0436C10.0605 13.9977 9.96563 13.9298 9.8875 13.8444L3.7625 7.62222C3.4125 7.26666 3.4125 6.71555 3.7625 6.36L9.8875 0.155552C10.2375 -0.200003 10.78 -0.200003 11.13 0.155552C11.48 0.511108 11.48 1.06222 11.13 1.41777L5.6175 7.01777L11.13 12.6178C11.48 12.9733 11.48 13.5244 11.13 13.88C10.955 14.0578 10.7275 14.1467 10.5175 14.1467L10.5 14.1111Z" fill="black"/>
</g>
<defs>
<clipPath id="clip0_9_412">
<rect width="26" height="14" fill="white"/>
</clipPath>
</defs>
</svg>
