<svg width="24" height="24" viewBox="0 0 24 24" fill="none" xmlns="http://www.w3.org/2000/svg">
<path fill-rule="evenodd" clip-rule="evenodd" d="M8.418 3.25C8.698 2.66 9.302 2.25 10 2.25H14C14.698 2.25 15.301 2.66 15.582 3.25C16.265 3.256 16.798 3.287 17.274 3.473C17.8422 3.69527 18.3364 4.07301 18.7 4.563C19.067 5.057 19.24 5.69 19.476 6.561L20.218 9.283L20.498 10.124L20.522 10.154C21.423 11.308 20.994 13.024 20.136 16.455C19.59 18.638 19.318 19.729 18.504 20.365C17.69 21 16.565 21 14.315 21H9.685C7.435 21 6.31 21 5.496 20.365C4.682 19.729 4.409 18.638 3.864 16.455C3.006 13.024 2.577 11.308 3.478 10.154L3.502 10.124L3.782 9.283L4.524 6.561C4.761 5.69 4.934 5.056 5.3 4.562C5.66373 4.07238 6.1579 3.695 6.726 3.473C7.202 3.287 7.734 3.255 8.418 3.25ZM8.42 4.753C7.758 4.76 7.492 4.785 7.272 4.871C6.96597 4.99068 6.69981 5.19411 6.504 5.458C6.328 5.695 6.224 6.026 5.934 7.093L5.364 9.182C6.384 9 7.778 9 9.684 9H14.315C16.222 9 17.615 9 18.635 9.18L18.066 7.091C17.776 6.024 17.672 5.693 17.496 5.456C17.3002 5.19211 17.034 4.98868 16.728 4.869C16.508 4.783 16.242 4.758 15.58 4.751C15.438 5.04985 15.2142 5.30232 14.9346 5.47914C14.6549 5.65596 14.3309 5.74987 14 5.75H10C9.66925 5.74996 9.34527 5.6562 9.06563 5.47956C8.78599 5.30293 8.56213 5.05166 8.42 4.753Z" fill="#9FA4A8"/>
<path d="M11.8098 12.5854C11.8697 12.4011 12.1303 12.4011 12.1902 12.5854L12.8532 14.6257C12.8799 14.7081 12.9567 14.7639 13.0434 14.7639H15.1887C15.3824 14.7639 15.463 15.0119 15.3062 15.1257L13.5706 16.3867C13.5005 16.4377 13.4712 16.5279 13.498 16.6103L14.1609 18.6507C14.2208 18.8349 14.0099 18.9881 13.8532 18.8743L12.1176 17.6133C12.0475 17.5623 11.9525 17.5623 11.8824 17.6133L10.1468 18.8743C9.9901 18.9881 9.7792 18.8349 9.83907 18.6507L10.502 16.6103C10.5288 16.5279 10.4995 16.4377 10.4294 16.3867L8.69375 15.1257C8.53701 15.0119 8.61757 14.7639 8.81131 14.7639H10.9566C11.0433 14.7639 11.1201 14.7081 11.1468 14.6257L11.8098 12.5854Z" fill="white"/>
</svg>
